#N canvas 277 213 810 451 12;
#X obj 125 78 * 0.1;
#X obj 125 7 loadbang;
#X obj -3 11 inlet~;
#X msg 125 30 70, f 4;
#X floatatom 125 54 5 0 0 0 - - -;
#X obj 27 118 filterbank, f 43;
#X obj 127 372 outlet~;
#X obj 203 185 spectral_smearing;
#X obj 198 306 recruitment;
#X obj 272 211 loadbang;
#X text 318 245 ratio for loudness recruitment;
#X obj 57 307 temporal_smearing;
#X text 107 213 phase shift;
#X obj 135 237 inlet;
#X obj 121 337 +~;
#X floatatom 270 275 5 0 0 0 - - -;
#X msg 273 248 1.6;
#X connect 0 0 5 1;
#X connect 1 0 3 0;
#X connect 2 0 5 0;
#X connect 3 0 4 0;
#X connect 4 0 0 0;
#X connect 5 0 11 0;
#X connect 5 1 11 0;
#X connect 5 2 11 0;
#X connect 5 3 11 0;
#X connect 5 4 11 0;
#X connect 5 5 11 0;
#X connect 5 6 11 0;
#X connect 5 7 7 0;
#X connect 5 8 7 0;
#X connect 5 9 7 0;
#X connect 5 10 7 0;
#X connect 5 11 7 0;
#X connect 5 12 7 0;
#X connect 5 13 7 0;
#X connect 5 14 7 0;
#X connect 5 15 7 0;
#X connect 5 16 7 0;
#X connect 5 17 7 0;
#X connect 5 18 7 0;
#X connect 5 19 7 0;
#X connect 5 20 7 0;
#X connect 5 21 7 0;
#X connect 5 22 7 0;
#X connect 5 23 7 0;
#X connect 7 0 8 0;
#X connect 8 0 14 1;
#X connect 9 0 16 0;
#X connect 11 0 14 0;
#X connect 13 0 11 1;
#X connect 14 0 6 0;
#X connect 15 0 8 1;
#X connect 16 0 15 0;
