#N canvas 939 469 810 451 12;
#X obj 125 78 * 0.1;
#X obj 125 7 loadbang;
#X obj -3 11 inlet~;
#X obj 609 191 vu 19 200 empty empty -1 -10 0 12 #404040 #000000 1 0;
#N canvas 329 161 625 417 vu 0;
#X obj 59 129 env~ 1024;
#X obj 161 111 abs~;
#X obj 161 213 snapshot~;
#X obj 161 256 rmstodb;
#X obj 161 21 inlet~;
#X obj 161 288 - 100;
#X obj 59 287 - 100;
#X obj 59 361 outlet;
#X obj 161 361 outlet;
#X text 344 307 Check the help file of env~ and slop~ for more details., f 31;
#X obj 239 89 expr 1000 / $f1;
#X floatatom 239 117 5 0 0 0 - - - 0;
#X obj 161 146 slop~ 0 0 0 0 1e+09;
#X obj 239 18 inlet;
#X floatatom 239 57 5 0 0 0 - - - 0;
#X text 359 89 convert to hz;
#X text 282 118 hz;
#X text 284 57 peak decay time in ms;
#X obj 59 171 t f b;
#X text 345 132 The env~ object is dedicated to RMS analysis. Its output is in dB (0-100 range \, pd style) but needs to be converted to dBFS (and we do that by simply subtracting 100)., f 31;
#X text 345 225 The slop~ object is used here for peak detection. We need to convert the output to dB with rmstodb and also subtract by 100 to convert it to dBFS., f 31;
#X connect 0 0 18 0;
#X connect 1 0 12 0;
#X connect 2 0 3 0;
#X connect 3 0 5 0;
#X connect 4 0 0 0;
#X connect 4 0 1 0;
#X connect 5 0 8 0;
#X connect 6 0 7 0;
#X connect 10 0 11 0;
#X connect 11 0 12 3;
#X connect 12 0 2 0;
#X connect 13 0 14 0;
#X connect 14 0 10 0;
#X connect 18 0 6 0;
#X connect 18 1 2 0;
#X restore 608 117 pd vu;
#X msg 125 30 70, f 4;
#X floatatom 125 54 5 0 0 0 - - - 0;
#X obj 27 118 filterbank, f 43;
#X obj 127 372 outlet~;
#X obj 203 185 spectral_smearing;
#X obj 198 306 recruitment;
#X obj 272 211 loadbang;
#X msg 272 243 1.3;
#X text 318 245 ratio for loudness recruitment;
#X obj -30 158 vu 19 200 empty empty -1 -10 0 12 #404040 #000000 1 0;
#N canvas 329 161 625 417 vu 0;
#X obj 59 129 env~ 1024;
#X obj 161 111 abs~;
#X obj 161 213 snapshot~;
#X obj 161 256 rmstodb;
#X obj 161 21 inlet~;
#X obj 161 288 - 100;
#X obj 59 287 - 100;
#X obj 59 361 outlet;
#X obj 161 361 outlet;
#X text 344 307 Check the help file of env~ and slop~ for more details., f 31;
#X obj 239 89 expr 1000 / $f1;
#X floatatom 239 117 5 0 0 0 - - - 0;
#X obj 161 146 slop~ 0 0 0 0 1e+09;
#X obj 239 18 inlet;
#X floatatom 239 57 5 0 0 0 - - - 0;
#X text 359 89 convert to hz;
#X text 282 118 hz;
#X text 284 57 peak decay time in ms;
#X obj 59 171 t f b;
#X text 345 132 The env~ object is dedicated to RMS analysis. Its output is in dB (0-100 range \, pd style) but needs to be converted to dBFS (and we do that by simply subtracting 100)., f 31;
#X text 345 225 The slop~ object is used here for peak detection. We need to convert the output to dB with rmstodb and also subtract by 100 to convert it to dBFS., f 31;
#X connect 0 0 18 0;
#X connect 1 0 12 0;
#X connect 2 0 3 0;
#X connect 3 0 5 0;
#X connect 4 0 0 0;
#X connect 4 0 1 0;
#X connect 5 0 8 0;
#X connect 6 0 7 0;
#X connect 10 0 11 0;
#X connect 11 0 12 3;
#X connect 12 0 2 0;
#X connect 13 0 14 0;
#X connect 14 0 10 0;
#X connect 18 0 6 0;
#X connect 18 1 2 0;
#X restore -31 84 pd vu;
#X obj 57 307 temporal_smearing;
#X text 107 213 phase shift;
#X obj 135 237 inlet;
#X obj 121 337 +~;
#X connect 0 0 7 1;
#X connect 1 0 5 0;
#X connect 2 0 7 0;
#X connect 2 0 15 0;
#X connect 4 0 3 0;
#X connect 5 0 6 0;
#X connect 6 0 0 0;
#X connect 7 0 16 0;
#X connect 7 1 16 0;
#X connect 7 2 16 0;
#X connect 7 3 16 0;
#X connect 7 4 16 0;
#X connect 7 5 16 0;
#X connect 7 6 16 0;
#X connect 7 7 9 0;
#X connect 7 8 9 0;
#X connect 7 9 9 0;
#X connect 7 10 9 0;
#X connect 7 11 9 0;
#X connect 7 12 9 0;
#X connect 7 13 9 0;
#X connect 7 14 9 0;
#X connect 7 15 9 0;
#X connect 7 16 9 0;
#X connect 7 17 9 0;
#X connect 7 18 9 0;
#X connect 7 19 9 0;
#X connect 7 20 9 0;
#X connect 7 21 9 0;
#X connect 7 22 9 0;
#X connect 7 23 9 0;
#X connect 9 0 10 0;
#X connect 10 0 19 1;
#X connect 11 0 12 0;
#X connect 12 0 10 1;
#X connect 15 0 14 0;
#X connect 16 0 19 0;
#X connect 18 0 16 1;
#X connect 19 0 8 0;
#X connect 19 0 4 0;
