#N canvas 786 276 686 451 12;
#X obj 125 78 * 0.1;
#X obj 125 7 loadbang;
#X obj 26 7 inlet~;
#X floatatom 125 54 5 0 0 0 - - - 0;
#X obj 27 118 filterbank, f 43;
#X obj 123 404 outlet~;
#X obj 203 185 spectral_smearing;
#X obj 198 306 recruitment;
#X obj 272 224 loadbang;
#X obj 57 307 temporal_smearing;
#X obj 151 267 inlet;
#X obj 121 337 +~;
#X floatatom 272 278 5 0 0 0 - - - 0;
#X msg 125 30 70, f 4;
#X msg 272 251 1.8;
#X obj 122 373 hip~ 40;
#X text 256 9 This sets the bandwidth of the individual filterbands. A Q of 7 is equivalent to a bandwidth of 0.2 octaves. With 4-5 filters per octave \, this gives a good overlap, f 34;
#X text 346 173 the high frequency bands are fed into spectral smearing, f 28;
#X text 340 248 this sets the ratio for the loudness recruitment expander, f 29;
#X text 340 296 high frequency bands are fed into recruitment expander \, while low frequency bands are fed into temporal smearing, f 29;
#X text 340 359 another high pass filter is needed \, since the processing can generate nasty low frequency pulsations, f 29;
#X text 86 229 phase shift frequency for temporal smearing, f 15;
#X connect 0 0 4 1;
#X connect 1 0 13 0;
#X connect 2 0 4 0;
#X connect 3 0 0 0;
#X connect 4 0 9 0;
#X connect 4 1 9 0;
#X connect 4 2 9 0;
#X connect 4 3 9 0;
#X connect 4 4 9 0;
#X connect 4 5 9 0;
#X connect 4 6 9 0;
#X connect 4 7 6 0;
#X connect 4 8 6 0;
#X connect 4 9 6 0;
#X connect 4 10 6 0;
#X connect 4 11 6 0;
#X connect 4 12 6 0;
#X connect 4 13 6 0;
#X connect 4 14 6 0;
#X connect 4 15 6 0;
#X connect 4 16 6 0;
#X connect 4 17 6 0;
#X connect 4 18 6 0;
#X connect 4 19 6 0;
#X connect 4 20 6 0;
#X connect 4 21 6 0;
#X connect 4 22 6 0;
#X connect 4 23 6 0;
#X connect 6 0 7 0;
#X connect 7 0 11 1;
#X connect 8 0 14 0;
#X connect 9 0 11 0;
#X connect 10 0 9 1;
#X connect 11 0 15 0;
#X connect 12 0 7 1;
#X connect 13 0 3 0;
#X connect 14 0 12 0;
#X connect 15 0 5 0;
