#N canvas 16 166 1223 497 12;
#X obj 647 10 inlet~;
#X obj 1213 10 inlet;
#X obj 150 166 bp~ 150 2;
#X obj 215 166 bp~ 250 2;
#X obj 281 166 bp~ 350 2;
#X obj 351 166 bp~ 450 2;
#X obj 417 166 bp~ 570 2;
#X obj 482 166 bp~ 700 2;
#X obj 625 167 bp~ 840 2;
#X obj 693 167 bp~ 1000 2;
#X obj 767 167 bp~ 1170 2;
#X obj 840 167 bp~ 1370 2;
#X obj 914 167 bp~ 1600 2;
#X obj 989 167 bp~ 1850 2;
#X obj 1062 167 bp~ 2150 2;
#X obj 1137 167 bp~ 2500 2;
#X obj 1212 167 bp~ 2900 2;
#X obj 1287 169 bp~ 3400 2;
#X obj 1362 167 bp~ 4000 2;
#X obj 1438 167 bp~ 4800 2;
#X obj 1513 167 bp~ 5800 2;
#X obj 1586 167 bp~ 7000 2;
#X obj 1660 167 bp~ 8500 2;
#X obj 1734 167 bp~ 10500 2;
#X obj 1813 167 bp~ 13500 2;
#X text 513 389 HF/LF Split happens here;
#X obj 80 346 outlet~;
#X obj 988 347 outlet~;
#X obj 149 346 outlet~;
#X obj 216 346 outlet~;
#X obj 281 346 outlet~;
#X obj 350 346 outlet~;
#X obj 417 346 outlet~;
#X obj 482 346 outlet~;
#X obj 622 347 outlet~;
#X obj 692 347 outlet~;
#X obj 765 347 outlet~;
#X obj 838 347 outlet~;
#X obj 913 347 outlet~;
#X obj 1814 346 outlet~;
#X obj 1062 347 outlet~;
#X obj 1136 347 outlet~;
#X obj 1212 347 outlet~;
#X obj 1287 347 outlet~;
#X obj 1362 347 outlet~;
#X obj 1436 347 outlet~;
#X obj 1513 347 outlet~;
#X obj 1587 347 outlet~;
#X obj 1660 347 outlet~;
#X obj 1736 347 outlet~;
#X text -32 26 separation into critical bands according to Zwicker
;
#X text -38 223 Level adjustment as audiogram simulation, f 13;
#X obj 542 192 loadbang;
#X obj 80 166 bp~ 50 2;
#N canvas 130 130 450 300 loss 0;
#X obj 88 37 inlet~;
#X obj 180 37 inlet;
#X obj 177 107 dbtorms;
#X obj 183 73 + 100;
#X floatatom 219 148 5 0 0 0 - - -;
#X obj 87 151 *~;
#X obj 88 227 outlet~;
#X connect 0 0 5 0;
#X connect 1 0 3 0;
#X connect 2 0 4 0;
#X connect 2 0 5 1;
#X connect 3 0 2 0;
#X connect 5 0 6 0;
#X restore 481 299 pd loss;
#N canvas 130 130 450 300 loss 0;
#X obj 88 37 inlet~;
#X obj 180 37 inlet;
#X obj 177 107 dbtorms;
#X obj 183 73 + 100;
#X floatatom 219 148 5 0 0 0 - - -;
#X obj 87 151 *~;
#X obj 88 227 outlet~;
#X connect 0 0 5 0;
#X connect 1 0 3 0;
#X connect 2 0 4 0;
#X connect 2 0 5 1;
#X connect 3 0 2 0;
#X connect 5 0 6 0;
#X restore 80 293 pd loss;
#N canvas 130 130 450 300 loss 0;
#X obj 88 37 inlet~;
#X obj 180 37 inlet;
#X obj 177 107 dbtorms;
#X obj 183 73 + 100;
#X floatatom 219 148 5 0 0 0 - - -;
#X obj 87 151 *~;
#X obj 88 227 outlet~;
#X connect 0 0 5 0;
#X connect 1 0 3 0;
#X connect 2 0 4 0;
#X connect 2 0 5 1;
#X connect 3 0 2 0;
#X connect 5 0 6 0;
#X restore 149 295 pd loss;
#N canvas 130 130 450 300 loss 0;
#X obj 88 37 inlet~;
#X obj 180 37 inlet;
#X obj 177 107 dbtorms;
#X obj 183 73 + 100;
#X floatatom 219 148 5 0 0 0 - - -;
#X obj 87 151 *~;
#X obj 88 227 outlet~;
#X connect 0 0 5 0;
#X connect 1 0 3 0;
#X connect 2 0 4 0;
#X connect 2 0 5 1;
#X connect 3 0 2 0;
#X connect 5 0 6 0;
#X restore 216 296 pd loss;
#N canvas 130 130 450 300 loss 0;
#X obj 88 37 inlet~;
#X obj 180 37 inlet;
#X obj 177 107 dbtorms;
#X obj 183 73 + 100;
#X floatatom 219 148 5 0 0 0 - - -;
#X obj 87 151 *~;
#X obj 88 227 outlet~;
#X connect 0 0 5 0;
#X connect 1 0 3 0;
#X connect 2 0 4 0;
#X connect 2 0 5 1;
#X connect 3 0 2 0;
#X connect 5 0 6 0;
#X restore 280 297 pd loss;
#N canvas 130 130 450 300 loss 0;
#X obj 88 37 inlet~;
#X obj 180 37 inlet;
#X obj 177 107 dbtorms;
#X obj 183 73 + 100;
#X floatatom 219 148 5 0 0 0 - - -;
#X obj 87 151 *~;
#X obj 88 227 outlet~;
#X connect 0 0 5 0;
#X connect 1 0 3 0;
#X connect 2 0 4 0;
#X connect 2 0 5 1;
#X connect 3 0 2 0;
#X connect 5 0 6 0;
#X restore 349 299 pd loss;
#N canvas 130 130 450 300 loss 0;
#X obj 88 37 inlet~;
#X obj 180 37 inlet;
#X obj 177 107 dbtorms;
#X obj 183 73 + 100;
#X floatatom 219 148 5 0 0 0 - - -;
#X obj 87 151 *~;
#X obj 88 227 outlet~;
#X connect 0 0 5 0;
#X connect 1 0 3 0;
#X connect 2 0 4 0;
#X connect 2 0 5 1;
#X connect 3 0 2 0;
#X connect 5 0 6 0;
#X restore 416 300 pd loss;
#N canvas 130 130 450 300 loss 0;
#X obj 88 37 inlet~;
#X obj 180 37 inlet;
#X obj 177 107 dbtorms;
#X obj 183 73 + 100;
#X floatatom 219 148 5 0 0 0 - - -;
#X obj 87 151 *~;
#X obj 88 227 outlet~;
#X connect 0 0 5 0;
#X connect 1 0 3 0;
#X connect 2 0 4 0;
#X connect 2 0 5 1;
#X connect 3 0 2 0;
#X connect 5 0 6 0;
#X restore 1061 301 pd loss;
#N canvas 130 130 450 300 loss 0;
#X obj 88 37 inlet~;
#X obj 180 37 inlet;
#X obj 177 107 dbtorms;
#X obj 183 73 + 100;
#X floatatom 219 148 5 0 0 0 - - -;
#X obj 87 151 *~;
#X obj 88 227 outlet~;
#X connect 0 0 5 0;
#X connect 1 0 3 0;
#X connect 2 0 4 0;
#X connect 2 0 5 1;
#X connect 3 0 2 0;
#X connect 5 0 6 0;
#X restore 622 295 pd loss;
#N canvas 130 130 450 300 loss 0;
#X obj 88 37 inlet~;
#X obj 180 37 inlet;
#X obj 177 107 dbtorms;
#X obj 183 73 + 100;
#X floatatom 219 148 5 0 0 0 - - -;
#X obj 87 151 *~;
#X obj 88 227 outlet~;
#X connect 0 0 5 0;
#X connect 1 0 3 0;
#X connect 2 0 4 0;
#X connect 2 0 5 1;
#X connect 3 0 2 0;
#X connect 5 0 6 0;
#X restore 691 297 pd loss;
#N canvas 130 130 450 300 loss 0;
#X obj 88 37 inlet~;
#X obj 180 37 inlet;
#X obj 177 107 dbtorms;
#X obj 183 73 + 100;
#X floatatom 219 148 5 0 0 0 - - -;
#X obj 87 151 *~;
#X obj 88 227 outlet~;
#X connect 0 0 5 0;
#X connect 1 0 3 0;
#X connect 2 0 4 0;
#X connect 2 0 5 1;
#X connect 3 0 2 0;
#X connect 5 0 6 0;
#X restore 766 298 pd loss;
#N canvas 130 130 450 300 loss 0;
#X obj 88 37 inlet~;
#X obj 180 37 inlet;
#X obj 177 107 dbtorms;
#X obj 183 73 + 100;
#X floatatom 219 148 5 0 0 0 - - -;
#X obj 87 151 *~;
#X obj 88 227 outlet~;
#X connect 0 0 5 0;
#X connect 1 0 3 0;
#X connect 2 0 4 0;
#X connect 2 0 5 1;
#X connect 3 0 2 0;
#X connect 5 0 6 0;
#X restore 839 299 pd loss;
#N canvas 130 130 450 300 loss 0;
#X obj 88 37 inlet~;
#X obj 180 37 inlet;
#X obj 177 107 dbtorms;
#X obj 183 73 + 100;
#X floatatom 219 148 5 0 0 0 - - -;
#X obj 87 151 *~;
#X obj 88 227 outlet~;
#X connect 0 0 5 0;
#X connect 1 0 3 0;
#X connect 2 0 4 0;
#X connect 2 0 5 1;
#X connect 3 0 2 0;
#X connect 5 0 6 0;
#X restore 913 301 pd loss;
#N canvas 130 130 450 300 loss 0;
#X obj 88 37 inlet~;
#X obj 180 37 inlet;
#X obj 177 107 dbtorms;
#X obj 183 73 + 100;
#X floatatom 219 148 5 0 0 0 - - -;
#X obj 87 151 *~;
#X obj 88 227 outlet~;
#X connect 0 0 5 0;
#X connect 1 0 3 0;
#X connect 2 0 4 0;
#X connect 2 0 5 1;
#X connect 3 0 2 0;
#X connect 5 0 6 0;
#X restore 988 302 pd loss;
#N canvas 130 130 450 300 loss 0;
#X obj 88 37 inlet~;
#X obj 180 37 inlet;
#X obj 177 107 dbtorms;
#X obj 183 73 + 100;
#X floatatom 219 148 5 0 0 0 - - -;
#X obj 87 151 *~;
#X obj 88 227 outlet~;
#X connect 0 0 5 0;
#X connect 1 0 3 0;
#X connect 2 0 4 0;
#X connect 2 0 5 1;
#X connect 3 0 2 0;
#X connect 5 0 6 0;
#X restore 1587 308 pd loss;
#N canvas 130 130 450 300 loss 0;
#X obj 88 37 inlet~;
#X obj 180 37 inlet;
#X obj 177 107 dbtorms;
#X obj 183 73 + 100;
#X floatatom 219 148 5 0 0 0 - - -;
#X obj 87 151 *~;
#X obj 88 227 outlet~;
#X connect 0 0 5 0;
#X connect 1 0 3 0;
#X connect 2 0 4 0;
#X connect 2 0 5 1;
#X connect 3 0 2 0;
#X connect 5 0 6 0;
#X restore 1137 302 pd loss;
#N canvas 130 130 450 300 loss 0;
#X obj 88 37 inlet~;
#X obj 180 37 inlet;
#X obj 177 107 dbtorms;
#X obj 183 73 + 100;
#X floatatom 219 148 5 0 0 0 - - -;
#X obj 87 151 *~;
#X obj 88 227 outlet~;
#X connect 0 0 5 0;
#X connect 1 0 3 0;
#X connect 2 0 4 0;
#X connect 2 0 5 1;
#X connect 3 0 2 0;
#X connect 5 0 6 0;
#X restore 1213 304 pd loss;
#N canvas 130 130 450 300 loss 0;
#X obj 88 37 inlet~;
#X obj 180 37 inlet;
#X obj 177 107 dbtorms;
#X obj 183 73 + 100;
#X floatatom 219 148 5 0 0 0 - - -;
#X obj 87 151 *~;
#X obj 88 227 outlet~;
#X connect 0 0 5 0;
#X connect 1 0 3 0;
#X connect 2 0 4 0;
#X connect 2 0 5 1;
#X connect 3 0 2 0;
#X connect 5 0 6 0;
#X restore 1286 305 pd loss;
#N canvas 130 130 450 300 loss 0;
#X obj 88 37 inlet~;
#X obj 180 37 inlet;
#X obj 177 107 dbtorms;
#X obj 183 73 + 100;
#X floatatom 219 148 5 0 0 0 - - -;
#X obj 87 151 *~;
#X obj 88 227 outlet~;
#X connect 0 0 5 0;
#X connect 1 0 3 0;
#X connect 2 0 4 0;
#X connect 2 0 5 1;
#X connect 3 0 2 0;
#X connect 5 0 6 0;
#X restore 1363 304 pd loss;
#N canvas 130 130 450 300 loss 0;
#X obj 88 37 inlet~;
#X obj 180 37 inlet;
#X obj 177 107 dbtorms;
#X obj 183 73 + 100;
#X floatatom 219 148 5 0 0 0 - - -;
#X obj 87 151 *~;
#X obj 88 227 outlet~;
#X connect 0 0 5 0;
#X connect 1 0 3 0;
#X connect 2 0 4 0;
#X connect 2 0 5 1;
#X connect 3 0 2 0;
#X connect 5 0 6 0;
#X restore 1437 308 pd loss;
#N canvas 130 130 450 300 loss 0;
#X obj 88 37 inlet~;
#X obj 180 37 inlet;
#X obj 177 107 dbtorms;
#X obj 183 73 + 100;
#X floatatom 219 148 5 0 0 0 - - -;
#X obj 87 151 *~;
#X obj 88 227 outlet~;
#X connect 0 0 5 0;
#X connect 1 0 3 0;
#X connect 2 0 4 0;
#X connect 2 0 5 1;
#X connect 3 0 2 0;
#X connect 5 0 6 0;
#X restore 1513 309 pd loss;
#N canvas 130 130 450 300 loss 0;
#X obj 88 37 inlet~;
#X obj 180 37 inlet;
#X obj 177 107 dbtorms;
#X obj 183 73 + 100;
#X floatatom 219 148 5 0 0 0 - - -;
#X obj 87 151 *~;
#X obj 88 227 outlet~;
#X connect 0 0 5 0;
#X connect 1 0 3 0;
#X connect 2 0 4 0;
#X connect 2 0 5 1;
#X connect 3 0 2 0;
#X connect 5 0 6 0;
#X restore 1810 304 pd loss;
#N canvas 130 130 450 300 loss 0;
#X obj 88 37 inlet~;
#X obj 180 37 inlet;
#X obj 177 107 dbtorms;
#X obj 183 73 + 100;
#X floatatom 219 148 5 0 0 0 - - -;
#X obj 87 151 *~;
#X obj 88 227 outlet~;
#X connect 0 0 5 0;
#X connect 1 0 3 0;
#X connect 2 0 4 0;
#X connect 2 0 5 1;
#X connect 3 0 2 0;
#X connect 5 0 6 0;
#X restore 1660 304 pd loss;
#N canvas 130 130 450 300 loss 0;
#X obj 88 37 inlet~;
#X obj 180 37 inlet;
#X obj 177 107 dbtorms;
#X obj 183 73 + 100;
#X floatatom 219 148 5 0 0 0 - - -;
#X obj 87 151 *~;
#X obj 88 227 outlet~;
#X connect 0 0 5 0;
#X connect 1 0 3 0;
#X connect 2 0 4 0;
#X connect 2 0 5 1;
#X connect 3 0 2 0;
#X connect 5 0 6 0;
#X restore 1736 305 pd loss;
#X floatatom 711 267 5 0 0 0 - - -;
#X msg 234 254 -8;
#X msg 299 252 0;
#X msg 641 242 4;
#X msg 367 252 5;
#X msg 434 247 5;
#X msg 527 246 4;
#X msg 1753 236 -21;
#X msg 1679 237 -17.5;
#X msg 1605 238 -22;
#X msg 1533 239 -15;
#X msg 1458 241 -5;
#X msg 1384 244 -9;
#X msg 1308 238 -7;
#X msg 1231 238 -5;
#X msg 1156 238 -10;
#X msg 1080 242 -13;
#X msg 1006 243 -14;
#X msg 932 242 -11;
#X msg 856 242 -8;
#X msg 786 241 -5;
#X msg 711 242 0;
#X msg 99 254 -30;
#X msg 180 252 -15;
#X msg 1832 234 -30;
#X connect 0 0 2 0;
#X connect 0 0 3 0;
#X connect 0 0 4 0;
#X connect 0 0 5 0;
#X connect 0 0 6 0;
#X connect 0 0 7 0;
#X connect 0 0 8 0;
#X connect 0 0 9 0;
#X connect 0 0 10 0;
#X connect 0 0 11 0;
#X connect 0 0 12 0;
#X connect 0 0 13 0;
#X connect 0 0 14 0;
#X connect 0 0 15 0;
#X connect 0 0 16 0;
#X connect 0 0 17 0;
#X connect 0 0 18 0;
#X connect 0 0 19 0;
#X connect 0 0 20 0;
#X connect 0 0 21 0;
#X connect 0 0 22 0;
#X connect 0 0 23 0;
#X connect 0 0 24 0;
#X connect 0 0 53 0;
#X connect 1 0 2 2;
#X connect 1 0 3 2;
#X connect 1 0 4 2;
#X connect 1 0 5 2;
#X connect 1 0 6 2;
#X connect 1 0 7 2;
#X connect 1 0 8 2;
#X connect 1 0 9 2;
#X connect 1 0 10 2;
#X connect 1 0 11 2;
#X connect 1 0 12 2;
#X connect 1 0 13 2;
#X connect 1 0 14 2;
#X connect 1 0 15 2;
#X connect 1 0 16 2;
#X connect 1 0 17 2;
#X connect 1 0 18 2;
#X connect 1 0 19 2;
#X connect 1 0 20 2;
#X connect 1 0 21 2;
#X connect 1 0 22 2;
#X connect 1 0 23 2;
#X connect 1 0 24 2;
#X connect 1 0 53 2;
#X connect 2 0 56 0;
#X connect 3 0 57 0;
#X connect 4 0 58 0;
#X connect 5 0 59 0;
#X connect 6 0 60 0;
#X connect 7 0 54 0;
#X connect 8 0 62 0;
#X connect 9 0 63 0;
#X connect 10 0 64 0;
#X connect 11 0 65 0;
#X connect 12 0 66 0;
#X connect 13 0 67 0;
#X connect 14 0 61 0;
#X connect 15 0 69 0;
#X connect 16 0 70 0;
#X connect 17 0 71 0;
#X connect 18 0 72 0;
#X connect 19 0 73 0;
#X connect 20 0 74 0;
#X connect 21 0 68 0;
#X connect 22 0 76 0;
#X connect 23 0 77 0;
#X connect 24 0 75 0;
#X connect 52 0 100 0;
#X connect 52 0 102 0;
#X connect 52 0 101 0;
#X connect 52 0 79 0;
#X connect 52 0 80 0;
#X connect 52 0 82 0;
#X connect 52 0 83 0;
#X connect 52 0 84 0;
#X connect 52 0 81 0;
#X connect 52 0 99 0;
#X connect 52 0 98 0;
#X connect 52 0 97 0;
#X connect 52 0 96 0;
#X connect 52 0 95 0;
#X connect 52 0 94 0;
#X connect 52 0 93 0;
#X connect 52 0 92 0;
#X connect 52 0 91 0;
#X connect 52 0 90 0;
#X connect 52 0 89 0;
#X connect 52 0 88 0;
#X connect 52 0 87 0;
#X connect 52 0 86 0;
#X connect 52 0 85 0;
#X connect 53 0 55 0;
#X connect 54 0 33 0;
#X connect 55 0 26 0;
#X connect 56 0 28 0;
#X connect 57 0 29 0;
#X connect 58 0 30 0;
#X connect 59 0 31 0;
#X connect 60 0 32 0;
#X connect 61 0 40 0;
#X connect 62 0 34 0;
#X connect 63 0 35 0;
#X connect 64 0 36 0;
#X connect 65 0 37 0;
#X connect 66 0 38 0;
#X connect 67 0 27 0;
#X connect 68 0 47 0;
#X connect 69 0 41 0;
#X connect 70 0 42 0;
#X connect 71 0 43 0;
#X connect 72 0 44 0;
#X connect 73 0 45 0;
#X connect 74 0 46 0;
#X connect 75 0 39 0;
#X connect 76 0 48 0;
#X connect 77 0 49 0;
#X connect 78 0 63 1;
#X connect 79 0 57 1;
#X connect 80 0 58 1;
#X connect 81 0 62 1;
#X connect 82 0 59 1;
#X connect 83 0 60 1;
#X connect 84 0 54 1;
#X connect 85 0 77 1;
#X connect 86 0 76 1;
#X connect 87 0 68 1;
#X connect 88 0 74 1;
#X connect 89 0 73 1;
#X connect 90 0 72 1;
#X connect 91 0 71 1;
#X connect 92 0 70 1;
#X connect 93 0 69 1;
#X connect 94 0 61 1;
#X connect 95 0 67 1;
#X connect 96 0 66 1;
#X connect 97 0 65 1;
#X connect 98 0 64 1;
#X connect 99 0 78 0;
#X connect 100 0 55 1;
#X connect 101 0 56 1;
#X connect 102 0 75 1;
