#N canvas 201 193 986 691 12;
#X obj 127 390 dac~;
#X obj 587 35 loadbang;
#X obj 347 310 tgl 18 0 empty empty empty 0 -6 0 8 #fcfcfc #000000 #000000 0 1;
#N canvas 357 62 601 665 fft 0;
#X obj 86 90 inlet~;
#X obj 162 243 inlet;
#X obj 96 121 rfft~;
#X obj 96 154 *~;
#X obj 127 154 *~;
#X obj 96 184 sqrt~;
#X obj 96 210 biquad~ 0 0 0 0 1;
#X text 160 122 Fourier series;
#X text 165 175 magnitude;
#X text 163 160 calculate;
#X text 64 24 This subpatch computes the spectrum of the incoming signal with a (rectangular windowed) FFT. FFTs aren't properly introduced until much later.;
#X text 150 90 signal to analyze;
#X text 235 202 delay two samples;
#X text 234 218 for better graphing;
#X obj 91 466 samplerate~;
#X obj 91 443 bng 18 250 50 0 empty empty empty 0 -6 0 8 #fcfcfc #000000 #000000;
#X floatatom 91 523 5 0 0 0 - - - 0;
#X obj 91 499 / 256;
#X obj 91 419 loadbang;
#X floatatom 91 592 5 0 0 0 - - - 0;
#X obj 99 545 s fundamental;
#X obj 91 568 ftom;
#X text 70 353 At load time \, calculate a good choice of fundamental frequency for showing spectra: the 16th bin in a 4096-point spectrum \, so SR*16/4096 or SR/256., f 62;
#X text 212 245 "bang" into this inlet to graph it;
#X floatatom 230 529 5 0 0 0 - - - 0;
#X text 226 476 One bin is SR/4096:;
#X obj 230 553 s freq-step;
#X text 147 591 <= just out of curiosity \, here's the fundamental pitch;
#X obj 230 507 / 8192;
#X obj 88 310 tabwrite~ signal;
#X obj 162 277 tabwrite~ spectrum;
#X obj 399 138 block~ 8192 1;
#X connect 0 0 2 0;
#X connect 0 0 29 0;
#X connect 1 0 29 0;
#X connect 1 0 30 0;
#X connect 2 0 3 0;
#X connect 2 0 3 1;
#X connect 2 1 4 0;
#X connect 2 1 4 1;
#X connect 3 0 5 0;
#X connect 4 0 5 0;
#X connect 5 0 6 0;
#X connect 6 0 30 0;
#X connect 14 0 17 0;
#X connect 14 0 28 0;
#X connect 15 0 14 0;
#X connect 16 0 20 0;
#X connect 16 0 21 0;
#X connect 17 0 16 0;
#X connect 18 0 15 0;
#X connect 21 0 19 0;
#X connect 24 0 26 0;
#X connect 28 0 24 0;
#X restore 293 376 pd fft;
#N canvas 0 0 450 300 (subpatch) 0;
#X array spectrum 128 float 0;
#X coords 0 220 128 -1 256 100 1 0 0;
#X restore 530 311 graph;
#N canvas 0 0 450 300 (subpatch) 0;
#X array signal 882 float 0;
#X coords 0 2 882 -2 256 130 1 0 0;
#X restore 530 433 graph;
#X obj 347 343 metro 100;
#X msg 587 66 \; pd dsp 1 \;;
#X obj 141 20 adc~;
#X obj 182 146 channelstrip;
#X obj 57 146 channelstrip;
#X text 372 308 <= enable graphs for diagnostic purposes, f 20;
#N canvas 0 0 612 483 equal_power_crossfade 0;
#X obj 33 48 inlet~;
#X obj 244 58 inlet;
#X obj 33 332 outlet~;
#X obj 319 54 loadbang;
#X msg 319 74 0.5;
#X obj 49 194 expr cos($f1 * 3.14159 / 2);
#X obj 244 194 expr sin($f1 * 3.14159 / 2);
#X obj 244 134 clip 0 1;
#N canvas 0 0 450 300 pan_core 0;
#X obj 21 106 inlet~;
#X obj 226 126 inlet;
#X obj 80 453 *~;
#X obj 144 497 outlet~;
#X obj 210 452 *~;
#X obj 226 428 line~;
#X obj 96 428 line~;
#X obj 96 127 inlet;
#X obj 179 104 inlet~;
#X text 244 544 comment;
#X obj 96 389 pack f 5;
#X obj 226 389 pack f 5;
#X text 223 540 Hans-Christoph Steiner \, 2004;
#X text 223 526 Adapted from [pan_core~];
#X connect 0 0 2 0;
#X connect 1 0 11 0;
#X connect 2 0 3 0;
#X connect 4 0 3 0;
#X connect 5 0 4 1;
#X connect 6 0 2 1;
#X connect 7 0 10 0;
#X connect 8 0 4 0;
#X connect 10 0 6 0;
#X connect 11 0 5 0;
#X restore 39 266 pd pan_core;
#X text 256 437 Adapted from [equal_power_pan~] \, Hans-Christoph Steiner \, 2004;
#X text 411 449 comment;
#X obj 128 46 inlet~;
#X connect 0 0 8 0;
#X connect 1 0 7 0;
#X connect 3 0 4 0;
#X connect 4 0 7 0;
#X connect 5 0 8 1;
#X connect 6 0 8 3;
#X connect 7 0 5 0;
#X connect 7 0 6 0;
#X connect 8 0 2 0;
#X connect 11 0 8 2;
#X restore -3 256 pd equal_power_crossfade;
#X obj 4 141 * 0.1;
#X obj 4 61 loadbang;
#X floatatom 4 117 5 0 0 0 - - - 0;
#N canvas 0 0 612 483 equal_power_crossfade 0;
#X obj 33 48 inlet~;
#X obj 244 58 inlet;
#X obj 33 332 outlet~;
#X obj 319 54 loadbang;
#X msg 319 74 0.5;
#X obj 49 194 expr cos($f1 * 3.14159 / 2);
#X obj 244 194 expr sin($f1 * 3.14159 / 2);
#X obj 244 134 clip 0 1;
#N canvas 0 0 450 300 pan_core 0;
#X obj 21 106 inlet~;
#X obj 226 126 inlet;
#X obj 80 453 *~;
#X obj 144 497 outlet~;
#X obj 210 452 *~;
#X obj 226 428 line~;
#X obj 96 428 line~;
#X obj 96 127 inlet;
#X obj 179 104 inlet~;
#X text 244 544 comment;
#X obj 96 389 pack f 5;
#X obj 226 389 pack f 5;
#X text 223 540 Hans-Christoph Steiner \, 2004;
#X text 223 526 Adapted from [pan_core~];
#X connect 0 0 2 0;
#X connect 1 0 11 0;
#X connect 2 0 3 0;
#X connect 4 0 3 0;
#X connect 5 0 4 1;
#X connect 6 0 2 1;
#X connect 7 0 10 0;
#X connect 8 0 4 0;
#X connect 10 0 6 0;
#X connect 11 0 5 0;
#X restore 39 266 pd pan_core;
#X text 256 437 Adapted from [equal_power_pan~] \, Hans-Christoph Steiner \, 2004;
#X text 411 449 comment;
#X obj 128 46 inlet~;
#X connect 0 0 8 0;
#X connect 1 0 7 0;
#X connect 3 0 4 0;
#X connect 4 0 7 0;
#X connect 5 0 8 1;
#X connect 6 0 8 3;
#X connect 7 0 5 0;
#X connect 7 0 6 0;
#X connect 8 0 2 0;
#X connect 11 0 8 2;
#X restore 172 255 pd equal_power_crossfade;
#X msg 4 93 3, f 4;
#X msg 133 85 20;
#X msg 239 83 10;
#X obj 91 56 hip~ 40;
#X obj 170 54 hip~ 40;
#X text 314 78 temporal smearing: phase shift frequencies differ slightly for additional confusion of directional hearing, f 31;
#X text 314 13 Input is split into left and right ear signals and highpass filtered to reduce impact noises, f 31;
#X text 307 146 each ear gets its own processing;
#X text 349 203 crossfade between left and right ear reduces interaural differences for additional confusion of directional hearing, f 26;
#X text 672 40 pd dsp 1 enables audio processing upon startup, f 14;
#X connect 1 0 7 0;
#X connect 2 0 6 0;
#X connect 6 0 3 1;
#X connect 8 0 20 0;
#X connect 8 1 21 0;
#X connect 9 0 12 1;
#X connect 9 0 16 0;
#X connect 10 0 12 0;
#X connect 10 0 16 1;
#X connect 12 0 0 0;
#X connect 13 0 12 2;
#X connect 13 0 16 2;
#X connect 14 0 17 0;
#X connect 14 0 18 0;
#X connect 14 0 19 0;
#X connect 15 0 13 0;
#X connect 16 0 3 0;
#X connect 16 0 0 1;
#X connect 17 0 15 0;
#X connect 18 0 10 1;
#X connect 19 0 9 1;
#X connect 20 0 10 0;
#X connect 21 0 9 0;
