#N canvas 541 123 1093 522 12;
#X obj 137 240 dac~;
#X obj 939 15 loadbang;
#X obj 332 152 tgl 18 0 empty empty empty 0 -6 0 8 #fcfcfc #000000 #000000 0 1;
#N canvas 357 62 601 665 fft 0;
#X obj 86 90 inlet~;
#X obj 162 243 inlet;
#X obj 96 121 rfft~;
#X obj 96 154 *~;
#X obj 127 154 *~;
#X obj 96 184 sqrt~;
#X obj 96 210 biquad~ 0 0 0 0 1;
#X text 160 122 Fourier series;
#X text 165 175 magnitude;
#X text 163 160 calculate;
#X text 64 24 This subpatch computes the spectrum of the incoming signal with a (rectangular windowed) FFT. FFTs aren't properly introduced until much later.;
#X text 150 90 signal to analyze;
#X text 235 202 delay two samples;
#X text 234 218 for better graphing;
#X obj 91 466 samplerate~;
#X obj 91 443 bng 18 250 50 0 empty empty empty 0 -6 0 8 #fcfcfc #000000 #000000;
#X floatatom 91 523 5 0 0 0 - - - 0;
#X obj 91 499 / 256;
#X obj 91 419 loadbang;
#X floatatom 91 592 5 0 0 0 - - - 0;
#X obj 99 545 s fundamental;
#X obj 91 568 ftom;
#X text 70 353 At load time \, calculate a good choice of fundamental frequency for showing spectra: the 16th bin in a 4096-point spectrum \, so SR*16/4096 or SR/256., f 62;
#X text 212 245 "bang" into this inlet to graph it;
#X floatatom 230 529 5 0 0 0 - - - 0;
#X text 226 476 One bin is SR/4096:;
#X obj 230 553 s freq-step;
#X text 147 591 <= just out of curiosity \, here's the fundamental pitch;
#X obj 230 507 / 8192;
#X obj 88 310 tabwrite~ signal;
#X obj 162 277 tabwrite~ spectrum;
#X obj 399 138 block~ 8192 1;
#X connect 0 0 2 0;
#X connect 0 0 29 0;
#X connect 1 0 29 0;
#X connect 1 0 30 0;
#X connect 2 0 3 0;
#X connect 2 0 3 1;
#X connect 2 1 4 0;
#X connect 2 1 4 1;
#X connect 3 0 5 0;
#X connect 4 0 5 0;
#X connect 5 0 6 0;
#X connect 6 0 30 0;
#X connect 14 0 17 0;
#X connect 14 0 28 0;
#X connect 15 0 14 0;
#X connect 16 0 20 0;
#X connect 16 0 21 0;
#X connect 17 0 16 0;
#X connect 18 0 15 0;
#X connect 21 0 19 0;
#X connect 24 0 26 0;
#X connect 28 0 24 0;
#X restore 278 218 pd fft;
#N canvas 0 0 450 300 (subpatch) 0;
#X array spectrum 128 float 0;
#X coords 0 220 128 -1 256 100 1 0 0;
#X restore 531 35 graph;
#N canvas 0 0 450 300 (subpatch) 0;
#X array signal 882 float 0;
#X coords 0 2 882 -2 256 130 1 0 0;
#X restore 531 175 graph;
#X obj 332 185 metro 100;
#X msg 939 46 \; pd dsp 1 \;;
#X obj 141 20 adc~;
#X obj 191 123 channelstrip;
#X obj 66 123 channelstrip;
#X obj 233 32 loadbang;
#X text 289 66 phase shift frequencies: differ slightly for additional confusion, f 26;
#X msg 133 85 1.9;
#X msg 239 83 2.1;
#X text 357 150 <= enable graphs for diagnostic purposes, f 20;
#X connect 1 0 7 0;
#X connect 2 0 6 0;
#X connect 6 0 3 1;
#X connect 8 0 9 0;
#X connect 8 0 10 0;
#X connect 8 1 9 0;
#X connect 8 1 10 0;
#X connect 9 0 0 1;
#X connect 9 0 3 0;
#X connect 10 0 0 0;
#X connect 11 0 14 0;
#X connect 11 0 13 0;
#X connect 13 0 10 1;
#X connect 14 0 9 1;
