#N canvas 1003 271 768 546 12;
#X obj 24 25 inlet~;
#X obj 28 449 outlet~;
#X obj 574 264 vu 19 200 empty empty -1 -10 0 12 #404040 #000000 1 0;
#N canvas 329 161 625 417 vu 0;
#X obj 59 129 env~ 1024;
#X obj 161 111 abs~;
#X obj 161 213 snapshot~;
#X obj 161 256 rmstodb;
#X obj 161 21 inlet~;
#X obj 161 288 - 100;
#X obj 59 287 - 100;
#X obj 59 361 outlet;
#X obj 161 361 outlet;
#X text 344 307 Check the help file of env~ and slop~ for more details., f 31;
#X obj 239 89 expr 1000 / $f1;
#X floatatom 239 117 5 0 0 0 - - - 0;
#X obj 161 146 slop~ 0 0 0 0 1e+09;
#X obj 239 18 inlet;
#X floatatom 239 57 5 0 0 0 - - - 0;
#X text 359 89 convert to hz;
#X text 282 118 hz;
#X text 284 57 peak decay time in ms;
#X obj 59 171 t f b;
#X text 345 132 The env~ object is dedicated to RMS analysis. Its output is in dB (0-100 range \, pd style) but needs to be converted to dBFS (and we do that by simply subtracting 100)., f 31;
#X text 345 225 The slop~ object is used here for peak detection. We need to convert the output to dB with rmstodb and also subtract by 100 to convert it to dBFS., f 31;
#X connect 0 0 18 0;
#X connect 1 0 12 0;
#X connect 2 0 3 0;
#X connect 3 0 5 0;
#X connect 4 0 0 0;
#X connect 4 0 1 0;
#X connect 5 0 8 0;
#X connect 6 0 7 0;
#X connect 10 0 11 0;
#X connect 11 0 12 3;
#X connect 12 0 2 0;
#X connect 13 0 14 0;
#X connect 14 0 10 0;
#X connect 18 0 6 0;
#X connect 18 1 2 0;
#X restore 142 458 pd vu;
#X floatatom 128 252 6 0 1000 0 - decay - 0;
#X floatatom 357 162 5 0 0 0 - - - 0;
#X text 309 161 ratio;
#X text 387 130 reference;
#X floatatom 250 259 5 0 0 0 - - - 0;
#X obj 252 304 + 100;
#X obj 254 339 dbtorms;
#X obj 28 415 *~;
#X obj 251 222 expr (((($f1 - $f3) / $f2) - $f1 + $f3) * $f4);
#X floatatom 56 342 10 0 0 0 - - - 0;
#X obj 357 31 inlet;
#X obj 57 390 line~;
#X obj 56 367 \$1 2000;
#X obj 188 86 env~ 8192;
#X obj 462 101 loadbang;
#X msg 462 130 70, f 4;
#X floatatom 461 159 5 0 0 0 - - - 0;
#X floatatom 571 159 5 0 0 0 - - - 0;
#X msg 572 130 -1, f 4;
#X text 621 131 expand (-1) or compress (1);
#X connect 0 0 17 0;
#X connect 0 0 11 0;
#X connect 3 0 2 0;
#X connect 3 1 2 1;
#X connect 4 0 3 1;
#X connect 5 0 12 1;
#X connect 8 0 9 0;
#X connect 9 0 10 0;
#X connect 10 0 13 0;
#X connect 11 0 1 0;
#X connect 11 0 3 0;
#X connect 12 0 8 0;
#X connect 13 0 16 0;
#X connect 14 0 5 0;
#X connect 15 0 11 1;
#X connect 16 0 15 0;
#X connect 17 0 12 0;
#X connect 18 0 19 0;
#X connect 18 0 22 0;
#X connect 19 0 20 0;
#X connect 20 0 12 2;
#X connect 21 0 12 3;
#X connect 22 0 21 0;
