#N canvas 541 402 789 386 12;
#X floatatom 57 129 5 0 0 0 - - - 0;
#N canvas 704 234 450 300 pitchmod 0;
#X obj 24 29 inlet~;
#X obj 24 68 hilbert~;
#X obj 57 116 complex-mod~;
#X obj 81 236 outlet~;
#X obj 111 29 inlet;
#X obj 57 155 expr~ ($v1+$v2);
#X obj 168 29 inlet;
#X obj 81 197 *~;
#X obj 169 155 *~ 0.1;
#X connect 0 0 1 0;
#X connect 1 0 2 0;
#X connect 1 1 2 1;
#X connect 2 0 5 0;
#X connect 2 1 5 1;
#X connect 4 0 2 2;
#X connect 5 0 7 0;
#X connect 6 0 8 0;
#X connect 7 0 3 0;
#X connect 8 0 7 1;
#X restore 22 174 pd pitchmod;
#X floatatom 100 130 5 0 0 0 - - - 0;
#X floatatom 148 130 5 0 0 0 - - - 0;
#N canvas 704 234 450 300 pitchmod 0;
#X obj 24 29 inlet~;
#X obj 24 68 hilbert~;
#X obj 57 116 complex-mod~;
#X obj 81 236 outlet~;
#X obj 111 29 inlet;
#X obj 57 155 expr~ ($v1+$v2);
#X obj 168 29 inlet;
#X obj 81 197 *~;
#X obj 169 155 *~ 0.1;
#X connect 0 0 1 0;
#X connect 1 0 2 0;
#X connect 1 1 2 1;
#X connect 2 0 5 0;
#X connect 2 1 5 1;
#X connect 4 0 2 2;
#X connect 5 0 7 0;
#X connect 6 0 8 0;
#X connect 7 0 3 0;
#X connect 8 0 7 1;
#X restore 118 175 pd pitchmod;
#X floatatom 194 129 5 0 0 0 - - - 0;
#X obj 196 17 loadbang;
#X obj 35 32 inlet~;
#X obj 93 262 outlet~;
#X msg 56 92 15;
#X msg 145 90 30;
#X floatatom 253 130 5 0 0 0 - - - 0;
#N canvas 704 234 668 300 pitchmod 1;
#X obj 24 29 inlet~;
#X obj 24 68 hilbert~;
#X obj 57 116 complex-mod~;
#X obj 81 236 outlet~;
#X obj 111 29 inlet;
#X obj 57 155 expr~ ($v1+$v2);
#X obj 168 29 inlet;
#X obj 81 197 *~;
#X obj 169 155 *~ 0.1;
#X text 246 114 the combination of hilbert transform and complex-mod generates up and downpitched signals \, which are then summed and level adjusted, f 36;
#X connect 0 0 1 0;
#X connect 1 0 2 0;
#X connect 1 1 2 1;
#X connect 2 0 5 0;
#X connect 2 1 5 1;
#X connect 4 0 2 2;
#X connect 5 0 7 0;
#X connect 6 0 8 0;
#X connect 7 0 3 0;
#X connect 8 0 7 1;
#X restore 223 175 pd pitchmod;
#X floatatom 301 131 5 0 0 0 - - - 0;
#X msg 250 90 40;
#X msg 100 90 12;
#X msg 192 91 6;
#X msg 297 93 3;
#X text 352 82 these parameters set the amount of pitch shift and the amplitude of the shifted signals \, multiples of 15 seem to work best \, lower values cause immense tremolo effects, f 40;
#X text 347 172 the up- and downpitched signals are added to the original signal, f 41;
#X connect 0 0 1 1;
#X connect 1 0 8 0;
#X connect 2 0 1 2;
#X connect 3 0 4 1;
#X connect 4 0 8 0;
#X connect 5 0 4 2;
#X connect 6 0 9 0;
#X connect 6 0 15 0;
#X connect 6 0 10 0;
#X connect 6 0 16 0;
#X connect 6 0 14 0;
#X connect 6 0 17 0;
#X connect 7 0 1 0;
#X connect 7 0 4 0;
#X connect 7 0 8 0;
#X connect 7 0 12 0;
#X connect 9 0 0 0;
#X connect 10 0 3 0;
#X connect 11 0 12 1;
#X connect 12 0 8 0;
#X connect 13 0 12 2;
#X connect 14 0 11 0;
#X connect 15 0 2 0;
#X connect 16 0 5 0;
#X connect 17 0 13 0;
