#N canvas 1034 310 450 300 12;
#X floatatom 57 129 5 0 0 0 - - - 0;
#N canvas 704 234 450 300 pitchmod 0;
#X obj 24 29 inlet~;
#X obj 24 68 hilbert~;
#X obj 57 116 complex-mod~;
#X obj 81 236 outlet~;
#X obj 111 29 inlet;
#X obj 57 155 expr~ ($v1+$v2);
#X obj 168 29 inlet;
#X obj 81 197 *~;
#X obj 169 155 *~ 0.1;
#X connect 0 0 1 0;
#X connect 1 0 2 0;
#X connect 1 1 2 1;
#X connect 2 0 5 0;
#X connect 2 1 5 1;
#X connect 4 0 2 2;
#X connect 5 0 7 0;
#X connect 6 0 8 0;
#X connect 7 0 3 0;
#X connect 8 0 7 1;
#X restore 22 174 pd pitchmod;
#X floatatom 100 130 5 0 0 0 - - - 0;
#X floatatom 155 129 5 0 0 0 - - - 0;
#N canvas 704 234 450 300 pitchmod 0;
#X obj 24 29 inlet~;
#X obj 24 68 hilbert~;
#X obj 57 116 complex-mod~;
#X obj 81 236 outlet~;
#X obj 111 29 inlet;
#X obj 57 155 expr~ ($v1+$v2);
#X obj 168 29 inlet;
#X obj 81 197 *~;
#X obj 169 155 *~ 0.1;
#X connect 0 0 1 0;
#X connect 1 0 2 0;
#X connect 1 1 2 1;
#X connect 2 0 5 0;
#X connect 2 1 5 1;
#X connect 4 0 2 2;
#X connect 5 0 7 0;
#X connect 6 0 8 0;
#X connect 7 0 3 0;
#X connect 8 0 7 1;
#X restore 125 174 pd pitchmod;
#X floatatom 203 130 5 0 0 0 - - - 0;
#X obj 127 33 loadbang;
#X obj 35 32 inlet~;
#X obj 93 262 outlet~;
#X msg 56 92 15;
#X msg 152 89 30;
#X msg 199 92 1;
#X msg 100 90 2;
#X connect 0 0 1 1;
#X connect 1 0 8 0;
#X connect 2 0 1 2;
#X connect 3 0 4 1;
#X connect 4 0 8 0;
#X connect 5 0 4 2;
#X connect 6 0 9 0;
#X connect 6 0 12 0;
#X connect 6 0 10 0;
#X connect 6 0 11 0;
#X connect 7 0 1 0;
#X connect 7 0 4 0;
#X connect 7 0 8 0;
#X connect 9 0 0 0;
#X connect 10 0 3 0;
#X connect 11 0 5 0;
#X connect 12 0 2 0;
