#N canvas 182 182 870 533 12;
#X obj 54 29 inlet~;
#X obj 55 230 outlet~;
#X obj 54 96 hilbert~;
#X obj 292 17 inlet;
#X obj 288 76 snapshot~;
#X obj 288 104 expr (($f1 + 1) / 3);
#N canvas 0 0 612 483 equal_power_crossfade 0;
#X obj 33 48 inlet~;
#X obj 244 58 inlet;
#X obj 33 332 outlet~;
#X obj 319 54 loadbang;
#X msg 319 74 0.5;
#X obj 49 194 expr cos($f1 * 3.14159 / 2);
#X obj 244 194 expr sin($f1 * 3.14159 / 2);
#X obj 244 134 clip 0 1;
#N canvas 0 0 450 300 pan_core 0;
#X obj 21 106 inlet~;
#X obj 226 126 inlet;
#X obj 80 453 *~;
#X obj 144 497 outlet~;
#X obj 210 452 *~;
#X obj 226 428 line~;
#X obj 96 428 line~;
#X obj 96 127 inlet;
#X obj 179 104 inlet~;
#X text 244 544 comment;
#X obj 96 389 pack f 5;
#X obj 226 389 pack f 5;
#X text 223 540 Hans-Christoph Steiner \, 2004;
#X text 223 526 Adapted from [pan_core~];
#X connect 0 0 2 0;
#X connect 1 0 11 0;
#X connect 2 0 3 0;
#X connect 4 0 3 0;
#X connect 5 0 4 1;
#X connect 6 0 2 1;
#X connect 7 0 10 0;
#X connect 8 0 4 0;
#X connect 10 0 6 0;
#X connect 11 0 5 0;
#X restore 39 266 pd pan_core;
#X text 256 437 Adapted from [equal_power_pan~] \, Hans-Christoph Steiner \, 2004;
#X text 411 449 comment;
#X obj 128 46 inlet~;
#X connect 0 0 8 0;
#X connect 1 0 7 0;
#X connect 3 0 4 0;
#X connect 4 0 7 0;
#X connect 5 0 8 1;
#X connect 6 0 8 3;
#X connect 7 0 5 0;
#X connect 7 0 6 0;
#X connect 8 0 2 0;
#X connect 11 0 8 2;
#X restore 54 187 pd equal_power_crossfade;
#X obj 212 18 loadbang;
#X floatatom 358 141 5 0 0 0 - - - 0;
#X obj 291 51 osc~ 2;
#X obj 176 24 bng 15 250 50 0 empty empty empty 17 7 0 10 #fcfcfc #000000 #000000;
#X obj 212 51 metro 200;
#X text 462 55 this oscillator cycles between 0 and 1 every 2 seconds, f 35;
#X text 462 102 output should cycle between 0.333 and 0.666 (number field is for debugging), f 35;
#X text 238 185 oscillator moves phase of the input signal by weighting the two phase shifted hilbert outputs, f 39;
#X connect 0 0 2 0;
#X connect 2 0 6 0;
#X connect 2 1 6 1;
#X connect 3 0 9 0;
#X connect 4 0 5 0;
#X connect 5 0 6 2;
#X connect 5 0 8 0;
#X connect 6 0 1 0;
#X connect 7 0 11 0;
#X connect 9 0 4 0;
#X connect 10 0 11 0;
#X connect 11 0 4 0;
